# xmcd
#
# Track frame offsets:
#	150
#	6965
#	20082
#	33090
#	46587
#	57240
#	72007
#	86102
#	98162
#	108665
#	120895
#	135087
#	146287
#	154352
#	165742
#	180512
#	193807
#	202320
#	214170
#	229307
#
# Disc length: 3246 seconds
#
# Revision: 1
# Processed by: cddbd v1.5.1PL2 Copyright (c) Steve Scherf et al.
# Submitted via: audiograbber 1.83.01
#
DISCID=110cac14
DTITLE=MARIO ZAN - RAIZES NORDESTINAS
DYEAR=1900
DGENRE=
TTITLE0=VAI QUE É MOLE
TTITLE1=ZÍNGARA
TTITLE2=O MENINO DA PORTEIRA
TTITLE3=DORINHA
TTITLE4=O BAILE DA SAUDADE
TTITLE5=CALANGO NORDESTINO
TTITLE6=POLCA Nº 1
TTITLE7=MANDANDO BRASA
TTITLE8=ACORDEI CANSADO
TTITLE9=FALSO AMOR
TTITLE10=FESTA DO CHOPPS
TTITLE11=INDECISO
TTITLE12=CORRE, GIRA
TTITLE13=BAILINHO DA ROÇA
TTITLE14=ESTOU NA MINHA
TTITLE15=O AMOR E A FLOR
TTITLE16=ESQUENTANDO O BAILE
TTITLE17=ENGRAÇADINHA
TTITLE18=UM DOMINGO À TARDE
TTITLE19=ASA BRANCA
EXTD=
EXTT0=
EXTT1=
EXTT2=
EXTT3=
EXTT4=
EXTT5=
EXTT6=
EXTT7=
EXTT8=
EXTT9=
EXTT10=
EXTT11=
EXTT12=
EXTT13=
EXTT14=
EXTT15=
EXTT16=
EXTT17=
EXTT18=
EXTT19=
PLAYORDER=
